<svg width="387" height="73" viewBox="0 0 387 73" fill="none" xmlns="http://www.w3.org/2000/svg">
<path d="M88.0938 13.5H95.5312L107.969 47.75L120.375 13.5H127.844L110.938 59H104.969L88.0938 13.5ZM84.3438 13.5H91.625L92.9375 44.9688V59H84.3438V13.5ZM124.281 13.5H131.594V59H123V44.9688L124.281 13.5ZM138.25 42.4375V41.7812C138.25 39.3021 138.604 37.0208 139.312 34.9375C140.021 32.8333 141.052 31.0104 142.406 29.4688C143.76 27.9271 145.417 26.7292 147.375 25.875C149.333 25 151.562 24.5625 154.062 24.5625C156.604 24.5625 158.854 25 160.812 25.875C162.792 26.7292 164.458 27.9271 165.812 29.4688C167.167 31.0104 168.198 32.8333 168.906 34.9375C169.615 37.0208 169.969 39.3021 169.969 41.7812V42.4375C169.969 44.8958 169.615 47.1771 168.906 49.2812C168.198 51.3646 167.167 53.1875 165.812 54.75C164.458 56.2917 162.802 57.4896 160.844 58.3438C158.885 59.1979 156.646 59.625 154.125 59.625C151.625 59.625 149.385 59.1979 147.406 58.3438C145.427 57.4896 143.76 56.2917 142.406 54.75C141.052 53.1875 140.021 51.3646 139.312 49.2812C138.604 47.1771 138.25 44.8958 138.25 42.4375ZM146.5 41.7812V42.4375C146.5 43.9167 146.646 45.3021 146.938 46.5938C147.229 47.8854 147.677 49.0208 148.281 50C148.885 50.9792 149.667 51.75 150.625 52.3125C151.604 52.8542 152.771 53.125 154.125 53.125C155.458 53.125 156.604 52.8542 157.562 52.3125C158.521 51.75 159.302 50.9792 159.906 50C160.531 49.0208 160.99 47.8854 161.281 46.5938C161.573 45.3021 161.719 43.9167 161.719 42.4375V41.7812C161.719 40.3229 161.573 38.9583 161.281 37.6875C160.99 36.3958 160.531 35.2604 159.906 34.2812C159.302 33.2812 158.51 32.5 157.531 31.9375C156.573 31.3542 155.417 31.0625 154.062 31.0625C152.729 31.0625 151.583 31.3542 150.625 31.9375C149.667 32.5 148.885 33.2812 148.281 34.2812C147.677 35.2604 147.229 36.3958 146.938 37.6875C146.646 38.9583 146.5 40.3229 146.5 41.7812ZM186.688 52.75L194.562 25.1875H203.188L191.594 59H186.344L186.688 52.75ZM180.938 25.1875L188.906 52.8125L189.188 59H183.906L172.281 25.1875H180.938ZM216.281 25.1875V59H208V25.1875H216.281ZM207.438 16.3438C207.438 15.1146 207.854 14.0938 208.688 13.2812C209.542 12.4688 210.688 12.0625 212.125 12.0625C213.562 12.0625 214.698 12.4688 215.531 13.2812C216.385 14.0938 216.812 15.1146 216.812 16.3438C216.812 17.5521 216.385 18.5625 215.531 19.375C214.698 20.1875 213.562 20.5938 212.125 20.5938C210.688 20.5938 209.542 20.1875 208.688 19.375C207.854 18.5625 207.438 17.5521 207.438 16.3438ZM239.344 59.625C236.781 59.625 234.479 59.2083 232.438 58.375C230.396 57.5417 228.656 56.3854 227.219 54.9062C225.802 53.4062 224.708 51.6667 223.938 49.6875C223.188 47.6875 222.812 45.5417 222.812 43.25V42C222.812 39.3958 223.188 37.0312 223.938 34.9062C224.688 32.7604 225.75 30.9167 227.125 29.375C228.5 27.8333 230.146 26.6458 232.062 25.8125C233.979 24.9792 236.094 24.5625 238.406 24.5625C240.802 24.5625 242.917 24.9688 244.75 25.7812C246.583 26.5729 248.115 27.6979 249.344 29.1562C250.573 30.6146 251.5 32.3646 252.125 34.4062C252.75 36.4271 253.062 38.6667 253.062 41.125V44.5938H226.562V38.9062H244.938V38.2812C244.896 36.9688 244.646 35.7708 244.188 34.6875C243.729 33.5833 243.021 32.7083 242.062 32.0625C241.104 31.3958 239.865 31.0625 238.344 31.0625C237.115 31.0625 236.042 31.3333 235.125 31.875C234.229 32.3958 233.479 33.1458 232.875 34.125C232.292 35.0833 231.854 36.2292 231.562 37.5625C231.271 38.8958 231.125 40.375 231.125 42V43.25C231.125 44.6667 231.312 45.9792 231.688 47.1875C232.083 48.3958 232.656 49.4479 233.406 50.3438C234.177 51.2188 235.094 51.9062 236.156 52.4062C237.24 52.8854 238.469 53.125 239.844 53.125C241.573 53.125 243.135 52.7917 244.531 52.125C245.948 51.4375 247.177 50.4271 248.219 49.0938L252.375 53.4062C251.667 54.4479 250.708 55.4479 249.5 56.4062C248.312 57.3646 246.875 58.1458 245.188 58.75C243.5 59.3333 241.552 59.625 239.344 59.625ZM277.188 49.75C277.188 49.0417 277 48.4062 276.625 47.8438C276.25 47.2812 275.542 46.7708 274.5 46.3125C273.479 45.8333 271.979 45.3854 270 44.9688C268.25 44.5938 266.635 44.125 265.156 43.5625C263.677 43 262.406 42.3229 261.344 41.5312C260.281 40.7188 259.448 39.7708 258.844 38.6875C258.26 37.5833 257.969 36.3125 257.969 34.875C257.969 33.4792 258.271 32.1667 258.875 30.9375C259.479 29.6875 260.354 28.5938 261.5 27.6562C262.646 26.6979 264.042 25.9479 265.688 25.4062C267.333 24.8438 269.188 24.5625 271.25 24.5625C274.125 24.5625 276.594 25.0312 278.656 25.9688C280.74 26.9062 282.333 28.1979 283.438 29.8438C284.542 31.4688 285.094 33.3021 285.094 35.3438H276.844C276.844 34.4479 276.635 33.6354 276.219 32.9062C275.823 32.1771 275.208 31.5938 274.375 31.1562C273.542 30.6979 272.49 30.4688 271.219 30.4688C270.073 30.4688 269.104 30.6562 268.312 31.0312C267.542 31.4062 266.958 31.8958 266.562 32.5C266.167 33.1042 265.969 33.7708 265.969 34.5C265.969 35.0417 266.073 35.5312 266.281 35.9688C266.51 36.3854 266.875 36.7708 267.375 37.125C267.875 37.4792 268.552 37.8021 269.406 38.0938C270.281 38.3854 271.354 38.6667 272.625 38.9375C275.146 39.4375 277.344 40.1042 279.219 40.9375C281.115 41.75 282.594 42.8333 283.656 44.1875C284.719 45.5417 285.25 47.2708 285.25 49.375C285.25 50.875 284.927 52.25 284.281 53.5C283.635 54.7292 282.698 55.8021 281.469 56.7188C280.24 57.6354 278.771 58.3542 277.062 58.875C275.354 59.375 273.427 59.625 271.281 59.625C268.177 59.625 265.552 59.0729 263.406 57.9688C261.26 56.8438 259.635 55.4271 258.531 53.7188C257.427 51.9896 256.875 50.1979 256.875 48.3438H264.781C264.844 49.6562 265.198 50.7083 265.844 51.5C266.49 52.2917 267.302 52.8646 268.281 53.2188C269.281 53.5521 270.333 53.7188 271.438 53.7188C272.688 53.7188 273.74 53.5521 274.594 53.2188C275.448 52.8646 276.094 52.3958 276.531 51.8125C276.969 51.2083 277.188 50.5208 277.188 49.75ZM291.875 54.9688C291.875 53.7188 292.302 52.6667 293.156 51.8125C294.01 50.9583 295.167 50.5312 296.625 50.5312C298.083 50.5312 299.24 50.9583 300.094 51.8125C300.948 52.6667 301.375 53.7188 301.375 54.9688C301.375 56.1979 300.948 57.2396 300.094 58.0938C299.24 58.9271 298.083 59.3438 296.625 59.3438C295.167 59.3438 294.01 58.9271 293.156 58.0938C292.302 57.2396 291.875 56.1979 291.875 54.9688ZM310.125 25.1875H318.438V61.5C318.438 63.8958 318 65.9271 317.125 67.5938C316.271 69.2604 315.031 70.5208 313.406 71.375C311.781 72.2292 309.792 72.6562 307.438 72.6562C306.708 72.6562 305.979 72.6146 305.25 72.5312C304.521 72.4479 303.802 72.3125 303.094 72.125L303.125 65.75C303.583 65.8333 304.052 65.8958 304.531 65.9375C305.01 66 305.49 66.0312 305.969 66.0312C306.865 66.0312 307.615 65.875 308.219 65.5625C308.844 65.25 309.312 64.7604 309.625 64.0938C309.958 63.4271 310.125 62.5625 310.125 61.5V25.1875ZM309.438 16.3438C309.438 15.1146 309.854 14.0938 310.688 13.2812C311.542 12.4688 312.688 12.0625 314.125 12.0625C315.562 12.0625 316.698 12.4688 317.531 13.2812C318.385 14.0938 318.812 15.1146 318.812 16.3438C318.812 17.5521 318.385 18.5625 317.531 19.375C316.698 20.1875 315.562 20.5938 314.125 20.5938C312.688 20.5938 311.542 20.1875 310.688 19.375C309.854 18.5625 309.438 17.5521 309.438 16.3438ZM344.688 49.75C344.688 49.0417 344.5 48.4062 344.125 47.8438C343.75 47.2812 343.042 46.7708 342 46.3125C340.979 45.8333 339.479 45.3854 337.5 44.9688C335.75 44.5938 334.135 44.125 332.656 43.5625C331.177 43 329.906 42.3229 328.844 41.5312C327.781 40.7188 326.948 39.7708 326.344 38.6875C325.76 37.5833 325.469 36.3125 325.469 34.875C325.469 33.4792 325.771 32.1667 326.375 30.9375C326.979 29.6875 327.854 28.5938 329 27.6562C330.146 26.6979 331.542 25.9479 333.188 25.4062C334.833 24.8438 336.688 24.5625 338.75 24.5625C341.625 24.5625 344.094 25.0312 346.156 25.9688C348.24 26.9062 349.833 28.1979 350.938 29.8438C352.042 31.4688 352.594 33.3021 352.594 35.3438H344.344C344.344 34.4479 344.135 33.6354 343.719 32.9062C343.323 32.1771 342.708 31.5938 341.875 31.1562C341.042 30.6979 339.99 30.4688 338.719 30.4688C337.573 30.4688 336.604 30.6562 335.812 31.0312C335.042 31.4062 334.458 31.8958 334.062 32.5C333.667 33.1042 333.469 33.7708 333.469 34.5C333.469 35.0417 333.573 35.5312 333.781 35.9688C334.01 36.3854 334.375 36.7708 334.875 37.125C335.375 37.4792 336.052 37.8021 336.906 38.0938C337.781 38.3854 338.854 38.6667 340.125 38.9375C342.646 39.4375 344.844 40.1042 346.719 40.9375C348.615 41.75 350.094 42.8333 351.156 44.1875C352.219 45.5417 352.75 47.2708 352.75 49.375C352.75 50.875 352.427 52.25 351.781 53.5C351.135 54.7292 350.198 55.8021 348.969 56.7188C347.74 57.6354 346.271 58.3542 344.562 58.875C342.854 59.375 340.927 59.625 338.781 59.625C335.677 59.625 333.052 59.0729 330.906 57.9688C328.76 56.8438 327.135 55.4271 326.031 53.7188C324.927 51.9896 324.375 50.1979 324.375 48.3438H332.281C332.344 49.6562 332.698 50.7083 333.344 51.5C333.99 52.2917 334.802 52.8646 335.781 53.2188C336.781 53.5521 337.833 53.7188 338.938 53.7188C340.188 53.7188 341.24 53.5521 342.094 53.2188C342.948 52.8646 343.594 52.3958 344.031 51.8125C344.469 51.2083 344.688 50.5208 344.688 49.75Z" fill="#E4E4E4"/>
<circle cx="377.5" cy="49.5" r="9.5" fill="url(#paint0_radial_3_23)"/>
<path d="M61 14H3V56H61V14Z" fill="#9BC9FF"/>
<path d="M61 5V14H3V5C3.00158 4.47005 3.2128 3.96227 3.58753 3.58753C3.96227 3.2128 4.47005 3.00158 5 3H59C59.5299 3.00158 60.0377 3.2128 60.4125 3.58753C60.7872 3.96227 60.9984 4.47005 61 5V5ZM61 56V59C60.9984 59.5299 60.7872 60.0377 60.4125 60.4125C60.0377 60.7872 59.5299 60.9984 59 61H5C4.47005 60.9984 3.96227 60.7872 3.58753 60.4125C3.2128 60.0377 3.00158 59.5299 3 59V56H61Z" fill="#ACABB1"/>
<path d="M25 7H22V10H25V7Z" fill="#C2FB3B"/>
<path d="M18 7H15V10H18V7Z" fill="#FFDA44"/>
<path d="M11 7H8V10H11V7Z" fill="#D80027"/>
<path d="M32 42C36.9706 42 41 37.9706 41 33C41 28.0294 36.9706 24 32 24C27.0294 24 23 28.0294 23 33C23 37.9706 27.0294 42 32 42Z" fill="#D80027"/>
<path d="M37 33L29 38V28L37 33Z" fill="white"/>
<path d="M59 2H5C4.20508 2.00237 3.4434 2.31921 2.8813 2.8813C2.31921 3.4434 2.00237 4.20508 2 5V59C2.00237 59.7949 2.31921 60.5566 2.8813 61.1187C3.4434 61.6808 4.20508 61.9976 5 62H59C59.7949 61.9976 60.5566 61.6808 61.1187 61.1187C61.6808 60.5566 61.9976 59.7949 62 59V5C61.9976 4.20508 61.6808 3.4434 61.1187 2.8813C60.5566 2.31921 59.7949 2.00237 59 2V2ZM60 59C60 59.2652 59.8946 59.5196 59.7071 59.7071C59.5196 59.8946 59.2652 60 59 60H5C4.73478 60 4.48043 59.8946 4.29289 59.7071C4.10536 59.5196 4 59.2652 4 59V57H60V59ZM60 55H4V15H60V55ZM60 13H4V5C4 4.73478 4.10536 4.48043 4.29289 4.29289C4.48043 4.10536 4.73478 4 5 4H59C59.2652 4 59.5196 4.10536 59.7071 4.29289C59.8946 4.48043 60 4.73478 60 5V13Z" fill="black"/>
<path d="M8 11H11C11.2652 11 11.5196 10.8946 11.7071 10.7071C11.8946 10.5196 12 10.2652 12 10V7C12 6.73478 11.8946 6.48043 11.7071 6.29289C11.5196 6.10536 11.2652 6 11 6H8C7.73478 6 7.48043 6.10536 7.29289 6.29289C7.10536 6.48043 7 6.73478 7 7V10C7 10.2652 7.10536 10.5196 7.29289 10.7071C7.48043 10.8946 7.73478 11 8 11ZM9 8H10V9H9V8ZM15 11H18C18.2652 11 18.5196 10.8946 18.7071 10.7071C18.8946 10.5196 19 10.2652 19 10V7C19 6.73478 18.8946 6.48043 18.7071 6.29289C18.5196 6.10536 18.2652 6 18 6H15C14.7348 6 14.4804 6.10536 14.2929 6.29289C14.1054 6.48043 14 6.73478 14 7V10C14 10.2652 14.1054 10.5196 14.2929 10.7071C14.4804 10.8946 14.7348 11 15 11ZM16 8H17V9H16V8ZM22 11H25C25.2652 11 25.5196 10.8946 25.7071 10.7071C25.8946 10.5196 26 10.2652 26 10V7C26 6.73478 25.8946 6.48043 25.7071 6.29289C25.5196 6.10536 25.2652 6 25 6H22C21.7348 6 21.4804 6.10536 21.2929 6.29289C21.1054 6.48043 21 6.73478 21 7V10C21 10.2652 21.1054 10.5196 21.2929 10.7071C21.4804 10.8946 21.7348 11 22 11ZM23 8H24V9H23V8Z" fill="black"/>
<path d="M16 46H14V50H16V46Z" fill="black"/>
<path d="M19 46H17V50H19V46Z" fill="black"/>
<path d="M49 47V49H39V50H37V49H21V47H37V46H39V47H49Z" fill="black"/>
<path d="M32 23C30.0222 23 28.0888 23.5865 26.4443 24.6853C24.7998 25.7841 23.5181 27.3459 22.7612 29.1732C22.0043 31.0004 21.8063 33.0111 22.1922 34.9509C22.578 36.8907 23.5304 38.6725 24.9289 40.0711C26.3275 41.4696 28.1093 42.422 30.0491 42.8079C31.9889 43.1937 33.9996 42.9957 35.8268 42.2388C37.6541 41.4819 39.2159 40.2002 40.3147 38.5557C41.4135 36.9112 42 34.9778 42 33C41.9958 30.3491 40.9408 27.8081 39.0664 25.9336C37.192 24.0592 34.6509 23.0042 32 23V23ZM32 41C30.4178 41 28.871 40.5308 27.5554 39.6518C26.2399 38.7727 25.2145 37.5233 24.609 36.0615C24.0035 34.5997 23.845 32.9911 24.1537 31.4393C24.4624 29.8874 25.2243 28.462 26.3432 27.3431C27.462 26.2243 28.8874 25.4624 30.4393 25.1537C31.9911 24.845 33.5997 25.0035 35.0615 25.609C36.5233 26.2145 37.7727 27.2398 38.6518 28.5554C39.5308 29.871 40 31.4177 40 33C39.9971 35.1208 39.1533 37.154 37.6536 38.6536C36.154 40.1533 34.1208 40.9971 32 41V41Z" fill="black"/>
<path d="M37.53 32.15L29.53 27.15C29.378 27.058 29.2044 27.0078 29.0267 27.0044C28.8491 27.0011 28.6737 27.0448 28.5184 27.1311C28.3631 27.2174 28.2333 27.3432 28.1423 27.4958C28.0512 27.6484 28.0022 27.8223 28 28V38C28.0002 38.1784 28.0487 38.3534 28.1402 38.5066C28.2318 38.6597 28.363 38.7853 28.52 38.87C28.6649 38.957 28.831 39.002 29 39C29.1871 38.9999 29.3706 38.9479 29.53 38.85L37.53 33.85C37.6747 33.7603 37.7941 33.6352 37.8769 33.4864C37.9598 33.3377 38.0032 33.1702 38.0032 33C38.0032 32.8298 37.9598 32.6623 37.8769 32.5136C37.7941 32.3648 37.6747 32.2397 37.53 32.15ZM30 36.2V29.8L35.11 33L30 36.2Z" fill="black"/>
<defs>
<radialGradient id="paint0_radial_3_23" cx="0" cy="0" r="1" gradientUnits="userSpaceOnUse" gradientTransform="translate(377.5 49.5) rotate(90) scale(9.5)">
<stop stop-color="#00FF29"/>
<stop offset="0.484375" stop-color="#70FF00"/>
<stop offset="1" stop-color="#74FF06"/>
</radialGradient>
</defs>
</svg>
