<svg xmlns="http://www.w3.org/2000/svg" data-name="Layer 1" viewBox="0 0 98 98"><g data-name="&lt;Group&gt;"><polygon fill="#00efd1" points="61.5 30 80.1 49 61.5 68 61.5 57 35.9 57 35.9 41 61.5 41 61.5 30" data-name="&lt;Group&gt;"/><g data-name="&lt;Group&gt;"><g data-name="&lt;Group&gt;"><path fill="#083863" d="M61.5,70h-.8A2.2,2.2,0,0,1,59.5,68V59H35.9a1.7,1.7,0,0,1-1.4-.6,2,2,0,0,1-.6-1.4V41a2,2,0,0,1,2-2H59.5V30a2.2,2.2,0,0,1,1.2-1.9,2,2,0,0,1,2.2.5l18.7,19a2.1,2.1,0,0,1,0,2.8l-18.7,19A2,2,0,0,1,61.5,70ZM37.9,55H61.5a2,2,0,0,1,2,2v6.1L77.3,49,63.5,34.9V41a2,2,0,0,1-2,2H37.9Z" data-name="&lt;Compound Path&gt;"/></g><g data-name="&lt;Group&gt;"><rect width="4" height="20" x="27.9" y="39" fill="#083863" data-name="&lt;Path&gt;" rx="2" ry="2"/></g><g data-name="&lt;Group&gt;"><rect width="4" height="20" x="21.9" y="39" fill="#083863" data-name="&lt;Path&gt;" rx="2" ry="2"/></g><g data-name="&lt;Group&gt;"><rect width="4" height="20" x="15.9" y="39" fill="#083863" data-name="&lt;Path&gt;" rx="2" ry="2"/></g></g></g></svg>